<svg xmlns="http://www.w3.org/2000/svg" width="48" height="48">
  <g fill="#fff" stroke-width=".682">
    <path d="M10.065 12.132l3.35-3.35a2.921 2.921 0 014.14 0l27.541 27.541a2.921 2.921 0 010 4.14l-3.35 3.35a2.921 2.921 0 01-4.14 0L10.065 16.272a2.921 2.921 0 010-4.14z" style="solid-color:#000;solid-opacity:1" color="#000" overflow="visible"/>
    <path d="M2.854 22.324a2.92 2.92 0 000 4.139l5.931 5.93a2.92 2.92 0 004.14.001l.753-.753c1.147-1.147-.976-3.164 0-4.14.975-.975 2.993 1.146 4.14 0l10.596-10.597a2.91 2.91 0 00.2-3.894c-.017-.033-.015-.058-.057-.1-5.31-5.311-.238-5.354 1.077-5.674 1.252-.305 1.566-3.222-.551-3.805-2.117-.587-8.62 1.381-10.74 3.403L7.749 17.429c-1.146 1.147.976 3.164 0 4.14-.975.975-2.993-1.147-4.14 0z" style="solid-color:#000;solid-opacity:1" color="#000" overflow="visible" fill-rule="evenodd"/>
  </g>
</svg>
