<?xml version="1.0" encoding="UTF-8" standalone="no"?>
<svg
   xmlns:dc="http://purl.org/dc/elements/1.1/"
   xmlns:cc="http://creativecommons.org/ns#"
   xmlns:rdf="http://www.w3.org/1999/02/22-rdf-syntax-ns#"
   xmlns:svg="http://www.w3.org/2000/svg"
   xmlns="http://www.w3.org/2000/svg"
   width="48"
   height="48"
   viewBox="0 0 12.7 12.7"
   version="1.1"
   id="svg8">
  <g transform="translate(-75.859,-131.661)">
    <g transform="translate(3e-6)">
      <path
         transform="matrix(0.264,0,0,0.264,75.859,131.661)"
         d="M 23.925 15.658 C 23.595 15.667 23.265 15.696 22.935 15.744 C 22.702 15.778 22.341 15.976 22.509 16.144 L 23.912 17.548 L 26.810 20.447 C 27.164 20.800 27.130 23.162 26.736 23.556 L 23.556 26.736 C 23.162 27.130 20.800 27.164 20.447 26.810 L 17.572 23.935 L 16.144 22.507 C 15.980 22.343 15.779 22.692 15.746 22.919 C 15.356 25.565 16.236 28.256 18.146 30.166 C 20.366 32.385 23.627 33.201 26.630 32.287 L 34.230 39.886 A 18.897 18.897 0 0 0 39.888 34.230 L 32.289 26.630 C 33.203 23.627 32.387 20.366 30.167 18.146 C 28.500 16.478 26.234 15.595 23.925 15.658 z " style="fill:#ffffff" />
      <path
         transform="matrix(0.264,0,0,0.264,75.859,131.661)"
         d="M 21.343 1.322 C 20.852 1.322 20.541 1.649 20.457 2.037 L 19.431 6.740 A 17.855 17.854 0 0 0 15.007 8.574 L 10.974 5.964 C 10.629 5.762 10.190 5.738 9.843 6.085 L 6.085 9.843 C 5.738 10.190 5.749 10.641 5.964 10.974 L 8.574 15.007 A 17.855 17.854 0 0 0 6.734 19.451 L 2.037 20.457 C 1.649 20.558 1.322 20.852 1.322 21.343 L 1.322 26.656 C 1.322 27.147 1.649 27.459 2.037 27.542 L 6.734 28.548 A 17.855 17.854 0 0 0 8.576 32.990 L 5.964 37.025 C 5.762 37.370 5.738 37.809 6.085 38.156 L 9.843 41.914 C 10.190 42.261 10.641 42.250 10.974 42.035 L 15.009 39.423 A 17.855 17.854 0 0 0 19.449 41.263 L 20.457 45.962 C 20.558 46.350 20.852 46.677 21.343 46.677 L 26.656 46.677 C 27.147 46.677 27.459 46.350 27.542 45.962 L 28.550 41.263 A 17.855 17.854 0 0 0 31.753 40.080 L 27.376 35.703 A 12.182 12.181 0 0 1 24 36.181 A 12.182 12.181 0 0 1 11.818 24 A 12.182 12.181 0 0 1 23.941 11.818 A 12.182 12.181 0 0 1 24 11.818 A 12.182 12.181 0 0 1 36.181 24 A 12.182 12.181 0 0 1 35.705 27.371 L 40.083 31.75 A 17.855 17.854 0 0 0 41.261 28.566 L 45.962 27.542 C 46.349 27.439 46.677 27.147 46.677 26.656 L 46.677 21.343 C 46.677 20.852 46.350 20.541 45.962 20.457 L 41.261 19.433 A 17.855 17.854 0 0 0 39.433 15.025 L 42.035 10.974 C 42.235 10.628 42.261 10.190 41.914 9.843 L 38.156 6.085 C 37.809 5.738 37.359 5.750 37.025 5.964 L 32.974 8.566 A 17.855 17.854 0 0 0 28.568 6.740 A 17.855 17.854 0 0 0 28.566 6.740 L 27.542 2.037 C 27.439 1.650 27.147 1.322 26.656 1.322 L 21.343 1.322 z "
         style="fill:#ffffff;stroke-width:7.559" />
    </g>
  </g>
</svg>
