<svg xmlns="http://www.w3.org/2000/svg" viewBox="0 0 12.7 12.7" height="48" width="48"><path d="M0 0v10.583h12.7V0H0zm.53.794h11.64V9.79H.53V.794zm3.174 9.795v1.582H2.381v.529h7.938v-.53H8.996V10.59H3.704z" paint-order="markers fill stroke" fill="#fff"/><path d="M6.35 3.292c-2.761 0-5 1.47-5 1.47s2.239 2 5 2 5-2 5-2-1.268-.832-3.073-1.244a1.984 1.984 0 01.057.475A1.984 1.984 0 016.35 5.977a1.984 1.984 0 01-1.84-1.24 1.297 1.297 0 00.252.024 1.297 1.297 0 00.678-.191 1.078 1.078 0 00.91.5 1.078 1.078 0 001.078-1.077 1.078 1.078 0 00-.22-.652 8.11 8.11 0 00-.858-.05zm.858.049zm.547.074z" fill="#fff" paint-order="markers fill stroke"/><circle cy="-1.305" cx="6.35" fill-opacity=".765" stroke="#000" stroke-width=".1" stroke-linecap="round" paint-order="markers fill stroke"/></svg>