<svg xmlns="http://www.w3.org/2000/svg" width="487.23" height="487.23" viewBox="0 0 500 500">
  <g fill="#fff">
    <path d="M216 32c-17.673 0-32 14.327-32 32v214.745l-68.686-68.686c-12.497-12.497-32.759-12.497-45.256 0-12.497 12.496-12.497 32.758 0 45.255l157.314 157.314c12.497 12.497 32.759 12.497 45.256 0l157.314-157.314c12.497-12.497 12.497-32.759 0-45.255-12.497-12.497-32.759-12.497-45.256 0L316 278.745V64c0-17.673-14.327-32-32-32h-68zM48 404c-17.673 0-32 14.327-32 32s14.327 32 32 32h404c17.673 0 32-14.327 32-32s-14.327-32-32-32H333.882l-38.627 38.627c-24.995 24.995-65.515 24.995-90.51 0L166.118 404H48z"/>
  </g>
</svg>
