<svg xmlns="http://www.w3.org/2000/svg" width="48" height="48" viewBox="0 0 12.7 12.7">
  <path d="M6.316 4.134c-.087.002-.174.01-.261.022-.062.01-.157.062-.113.106l.37.37.766.766c.093.093.084.717-.02.82l-.84.84c-.103.104-.727.113-.82.02l-.759-.76-.377-.376c-.043-.043-.096.049-.105.109A2.243 2.243 0 007.03 8.524l2.007 2.006a4.989 4.989 0 001.493-1.493L8.524 7.03a2.243 2.243 0 00-2.208-2.896z" fill="#fff"/>
  <path d="M5.635.349A.232.232 0 005.4.538L5.13 1.779a4.714 4.713 0 00-1.168.485l-1.065-.69c-.09-.053-.207-.06-.298.032l-.993.993a.232.232 0 00-.032.298l.69 1.065a4.714 4.713 0 00-.486 1.173l-1.24.266c-.103.026-.189.104-.189.234v1.402c0 .13.086.212.189.234l1.24.266a4.714 4.713 0 00.486 1.172l-.69 1.066c-.053.09-.06.207.032.298l.993.992c.091.092.21.089.298.032l1.065-.69a4.714 4.713 0 001.173.486l.266 1.241c.026.102.104.189.234.189h1.402c.13 0 .212-.087.234-.189l.266-1.24a4.714 4.713 0 00.846-.313L7.227 9.426a3.216 3.216 0 01-.891.126A3.216 3.216 0 013.12 6.336a3.216 3.216 0 013.2-3.216 3.216 3.216 0 01.016 0 3.216 3.216 0 013.216 3.216 3.216 3.216 0 01-.126.89l1.156 1.156a4.714 4.713 0 00.31-.84l1.242-.27c.102-.028.189-.105.189-.235V5.635a.232.232 0 00-.189-.234l-1.241-.27a4.714 4.713 0 00-.483-1.164l.687-1.07c.053-.091.06-.207-.032-.298l-.992-.993a.232.232 0 00-.298-.032l-1.07.687a4.714 4.713 0 00-1.163-.482L7.271.538C7.243.436 7.166.349 7.036.349H5.635z" fill="#fff"/>
</svg>
