<svg height="128" width="128" xmlns="http://www.w3.org/2000/svg">
  <circle cx="64" cy="64" fill="#CC191E" r="64"/>
  <path d="M103.201 48.004s-.781-5.513-3.18-7.939c-3.043-3.187-6.453-3.203-8.016-3.389-11.191-.81-27.988-.81-27.988-.81h-.036s-16.795 0-27.988.81c-1.564.186-4.972.201-8.015 3.389-2.399 2.426-3.18 7.939-3.18 7.939S24 54.478 24 60.953v6.071c0 6.471.799 12.947.799 12.947s.781 5.51 3.18 7.938c3.044 3.189 7.041 3.088 8.82 3.422 6.401.615 27.202.805 27.202.805s16.81-.025 28.005-.834c1.564-.188 4.975-.203 8.016-3.391 2.4-2.43 3.182-7.939 3.182-7.939s.796-6.476.796-12.949v-6.071c0-6.474-.799-12.948-.799-12.948M54.729 75.428l-.003-24.581 23.637 12.332-23.634 12.249z" fill="#FFF"/>
</svg>
