<svg height="67" width="67" xmlns="http://www.w3.org/2000/svg">
  <path d="M20.543 34.569c-.054-.001.592 1.366.61 1.366 1.41 2.516 4.128 4.08 8.713 4.514-.654.488-1.44 1.414-1.549 2.484-.823.523-2.478.696-3.764.297-1.803-.559-2.493-4.066-5.192-3.566-.584.107-.468.486.037.808.823.524 1.597 1.179 2.194 2.572.459 1.07 1.423 2.981 4.473 2.981 1.21 0 2.058-.143 2.058-.143s.023 2.731.023 3.793c0 1.225-1.682 1.57-1.682 2.159 0 .233.557.255 1.004.255.884 0 2.723-.725 2.723-1.998 0-1.011.017-4.411.017-5.006 0-1.3.709-1.712.709-1.712s.088 6.94-.169 7.872c-.302 1.094-.847.939-.847 1.427 0 .726 2.214.179 2.948-1.416.567-1.239.319-8.05.319-8.05l.605-.012s.034 3.117.013 4.542c-.021 1.476-.123 3.342.769 4.222.586.579 2.484 1.594 2.484.666 0-.539-1.04-.982-1.04-2.441v-6.715c.831 0 .706 2.208.706 2.208l.061 4.103s-.184 1.494 1.645 2.119c.645.223 2.025.282 2.09-.09.065-.373-1.662-.928-1.678-2.084-.01-.707.032-1.119.032-4.187 0-3.068-.419-4.202-1.88-5.106 4.508-.455 7.299-1.551 8.658-4.486.106.003.555-1.371.496-1.371.305-1.108.47-2.419.502-3.971-.008-4.21-2.058-5.699-2.451-6.398.58-3.187-.098-4.637-.412-5.135-1.162-.406-4.041 1.045-5.615 2.066-2.564-.737-7.986-.666-10.019.19-3.751-2.639-5.736-2.235-5.736-2.235s-1.283 2.259-.339 5.565c-1.234 1.546-2.154 2.64-2.154 5.539.001 1.635.197 3.097.638 4.374zM33 64C16.432 64 3 50.569 3 34S16.432 4 33 4s30 13.431 30 30-13.432 30-30 30z" fill-rule="evenodd" clip-rule="evenodd" fill="#d8d9d8"/>
</svg>
