<?xml version="1.0" ?><!DOCTYPE svg  PUBLIC '-//W3C//DTD SVG 1.1//EN'  'http://www.w3.org/Graphics/SVG/1.1/DTD/svg11.dtd'><svg enable-background="new 0 0 128 128" height="128px" id="Layer_1" version="1.1" viewBox="0 0 128 128" width="128px" xml:space="preserve" xmlns="http://www.w3.org/2000/svg" xmlns:xlink="http://www.w3.org/1999/xlink"><g><circle cx="64" cy="64" fill="#CC191E" r="64"/></g><path d="M103.201,48.004c0,0-0.781-5.513-3.18-7.939c-3.043-3.187-6.453-3.203-8.016-3.389  c-11.191-0.81-27.988-0.81-27.988-0.81h-0.036c0,0-16.795,0-27.988,0.81c-1.564,0.186-4.972,0.201-8.015,3.389  c-2.399,2.426-3.18,7.939-3.18,7.939S24,54.478,24,60.953v6.071c0,6.471,0.799,12.947,0.799,12.947s0.781,5.51,3.18,7.938  c3.044,3.189,7.041,3.088,8.82,3.422c6.401,0.615,27.202,0.805,27.202,0.805s16.81-0.025,28.005-0.834  c1.564-0.188,4.975-0.203,8.016-3.391c2.4-2.43,3.182-7.939,3.182-7.939S104,73.496,104,67.023v-6.071  C104,54.478,103.201,48.004,103.201,48.004 M54.729,75.428l-0.003-24.581l23.637,12.332L54.729,75.428z" fill="#FFFFFF"/></svg>