<?xml version="1.0" encoding="UTF-8" standalone="no"?>
<svg
   xmlns:dc="http://purl.org/dc/elements/1.1/"
   xmlns:cc="http://creativecommons.org/ns#"
   xmlns:rdf="http://www.w3.org/1999/02/22-rdf-syntax-ns#"
   xmlns:svg="http://www.w3.org/2000/svg"
   xmlns="http://www.w3.org/2000/svg"
   width="48"
   height="48"
   viewBox="0 0 12.7 12.7"
   version="1.1">
  <g
     transform="translate(-75.859,-131.661)">
    <path
       style="fill:none;stroke:#ffffff;stroke-width:0.25"
       d="m 81.506,132.136 h 1.405 c 0.074,0 0.097,0.033 0.113,0.096 l 0.290,1.337 h 0.079 c 0.393,0.105 0.772,0.261 1.124,0.466 l 0.066,0.038 1.136,-0.729 c 0.047,-0.030 0.090,-0.037 0.143,0.015 l 0.994,0.994 c 0.052,0.052 0.044,0.091 0.012,0.147 l -0.726,1.132 0.038,0.066 c 0.207,0.355 0.365,0.737 0.470,1.135 l 0.019,0.073 1.318,0.286 c 0.054,0.011 0.090,0.038 0.090,0.112 v 1.405 c 0,0.074 -0.033,0.097 -0.096,0.113 l -1.313,0.285 -0.019,0.073 c -0.059,0.223 -0.147,0.436 -0.239,0.648 l -0.978,-0.978 c 0.072,-0.276 0.119,-0.560 0.119,-0.846 -1.9e-5,-1.847 -1.500,-3.347 -3.347,-3.348 -0.005,-2e-5 -0.011,-2e-5 -0.016,0 -1.841,0.009 -3.332,1.506 -3.332,3.348 1.9e-5,1.847 1.500,3.348 3.348,3.348 0.286,-9e-5 0.570,-0.047 0.848,-0.120 l 0.977,0.977 c -0.213,0.092 -0.428,0.181 -0.653,0.241 l -0.073,0.019 -0.283,1.318 c -0.011,0.053 -0.037,0.090 -0.112,0.090 h -1.405 c -0.073,0 -0.096,-0.033 -0.113,-0.095 l -0.282,-1.313 -0.073,-0.019 c -0.400,-0.105 -0.785,-0.265 -1.143,-0.473 l -0.066,-0.038 -1.131,0.732 c -0.046,0.030 -0.090,0.037 -0.143,-0.015 l -0.994,-0.994 c -0.052,-0.052 -0.044,-0.092 -0.012,-0.147 l 0.729,-1.127 -0.038,-0.066 c -0.208,-0.358 -0.368,-0.743 -0.474,-1.144 l -0.019,-0.073 -1.317,-0.282 c -0.053,-0.011 -0.090,-0.037 -0.090,-0.112 v -1.405 c 0,-0.073 0.033,-0.097 0.095,-0.113 l 1.313,-0.281 0.019,-0.073 c 0.105,-0.401 0.265,-0.786 0.473,-1.144 l 0.038,-0.066 -0.732,-1.131 c -0.030,-0.046 -0.037,-0.090 0.015,-0.143 l 0.994,-0.994 c 0.052,-0.052 0.092,-0.044 0.147,-0.012 l 1.126,0.729 0.066,-0.038 c 0.356,-0.207 0.740,-0.366 1.139,-0.472 l 0.073,-0.019 0.287,-1.318 c 0.011,-0.054 0.038,-0.090 0.112,-0.090 z" />
    <path
       style="fill:none;stroke:#ffffff;stroke-width:0.25"
       d="m 82.189,135.804 c -0.087,0.002 -0.174,0.010 -0.261,0.022 -0.061,0.009 -0.157,0.061 -0.112,0.105 l 0.371,0.371 0.766,0.766 c 0.093,0.093 0.084,0.718 -0.019,0.822 l -0.841,0.841 c -0.104,0.104 -0.729,0.113 -0.822,0.019 l -0.760,-0.760 -0.377,-0.377 c -0.043,-0.043 -0.096,0.048 -0.105,0.109 -0.102,0.7 0.129,1.411 0.635,1.917 0.587,0.587 1.450,0.803 2.244,0.561 l 2.640,2.639 1.497,-1.496 -2.640,-2.639 c 0.241,-0.794 0.026,-1.657 -0.561,-2.244 -0.441,-0.441 -1.040,-0.674 -1.651,-0.658 z" />
  </g>
</svg>
