<svg xmlns="http://www.w3.org/2000/svg" width="48" height="48" viewBox="0 0 12.7 12.7">
  <style>
    .tb-a{ fill: none; stroke-width: 0.4; stroke: #808080; }
  </style>
  <path class="tb-a" d="M5.647.475h1.405c.074 0 .097.033.113.096l.29 1.337h.079c.393.105.772.261 1.124.466l.066.038 1.136-.729c.047-.03.09-.037.143.015l.994.994c.052.052.044.091.012.147l-.726 1.132.038.066c.207.355.365.737.47 1.135l.019.073 1.318.286c.054.011.09.038.09.112v1.405c0 .074-.033.097-.096.113l-1.313.285-.019.073a4.58 4.58 0 01-.239.648l-.978-.978a3.36 3.36 0 00.119-.846 3.35 3.35 0 00-3.363-3.348 3.35 3.35 0 00-3.332 3.348 3.35 3.35 0 003.348 3.348c.286 0 .57-.047.848-.12l.977.977a4.732 4.732 0 01-.653.241l-.073.019-.283 1.318c-.011.053-.037.09-.112.09H5.644c-.073 0-.096-.033-.113-.095l-.282-1.313-.073-.019a4.606 4.606 0 01-1.143-.473l-.066-.038-1.131.732c-.046.03-.09.037-.143-.015l-.994-.994c-.052-.052-.044-.092-.012-.147l.729-1.127-.038-.066a4.638 4.638 0 01-.474-1.144l-.019-.073-1.317-.282c-.053-.011-.09-.037-.09-.112V5.645c0-.073.033-.097.095-.113l1.313-.281.019-.073c.105-.401.265-.786.473-1.144l.038-.066-.732-1.131c-.03-.046-.037-.09.015-.143l.994-.994c.052-.052.092-.044.147-.012l1.126.729.066-.038c.356-.207.74-.366 1.139-.472l.073-.019L5.531.57c.011-.054.038-.09.112-.09z"/>
  <path class="tb-a" d="M6.33 4.143c-.087.002-.174.01-.261.022-.061.009-.157.061-.112.105l.371.371.766.766c.093.093.084.718-.019.822l-.841.841c-.104.104-.729.113-.822.019l-.76-.76-.377-.377c-.043-.043-.096.048-.105.109a2.25 2.25 0 002.879 2.478l2.64 2.639 1.497-1.496-2.64-2.639a2.25 2.25 0 00-2.212-2.902z"/>
</svg>
