<svg xmlns="http://www.w3.org/2000/svg" height="48" width="48" class="undefined">
  <path d="M28.1 2.8c-1.4 0-3.4.5-5.3 1.2-1.9.6-3.7 1.5-4.8 2.5l-1.3 1.3c-1.2-.5-2.6-.4-3.6.6l-3.4 3.4c-.9 1-1.1 2.4-.6 3.6l-1.7 1.7c-.4.4-.5.9-.5 1.3.1.5.2.9.3 1.3.2.4.3.8.3 1 .1.3.1.4-.1.5-.1.2-.2.2-.5.1-.2 0-.6-.1-1-.2-.4-.2-.8-.3-1.3-.3-.4-.1-.9 0-1.3.4l-.8.8c-1.3 1.3-1.3 3.5 0 4.8l6 5.9c1.3 1.4 3.4 1.4 4.8 0l.7-.7c.4-.4.5-.9.5-1.4 0-.4-.2-.9-.3-1.2-.1-.4-.3-.8-.3-1.1 0-.2 0-.3.1-.5.2-.1.3-.1.5-.1.3.1.7.2 1 .3.4.2.9.3 1.3.3.5.1 1-.1 1.4-.5l1.4-1.4 17.7 17.8c1.3 1.3 3.5 1.3 4.8 0l3.4-3.4c1.3-1.3 1.3-3.5 0-4.8L27.7 18.3l1.1-1.1c1.2-1.2 1.3-3.2.2-4.5 0 0 0-.1-.1-.1-1.3-1.3-1.9-2.3-2.1-2.9-.2-.7-.1-.9.2-1.2.2-.2.8-.4 1.3-.5.5-.2 1.1-.2 1.5-.3.5-.1.8-.5 1-.9.2-.4.3-.9.3-1.4 0-1-.6-2.1-1.9-2.4-.3-.1-.7-.2-1.1-.2zm0 1c.4 0 .7 0 .9.1.8.2 1.2.9 1.2 1.5 0 .4-.1.7-.2 1-.1.2-.3.3-.4.4-.3 0-.9.1-1.5.2-.6.2-1.3.4-1.8.8-.5.5-.7 1.3-.4 2.2.3.8 1 1.9 2.4 3.2-.1 0-.1-.1-.1 0a.5.5 0 00.1.1c.8 1 .7 2.4-.2 3.3l-1.4 1.3a.5.5 0 000 .7l18.1 18.1c1 .9 1 2.5 0 3.4l-3.3 3.4c-1 1-2.6 1-3.5 0L19.9 25.4a.5.5 0 00-.7 0l-1.7 1.8c-.2.2-.3.2-.6.2s-.7-.1-1-.3c-.4-.1-.8-.3-1.2-.3-.5-.1-1 0-1.3.4-.4.3-.5.8-.4 1.3 0 .4.2.8.3 1.2.1.3.3.7.3 1 0 .3-.1.4-.2.6l-.8.8c-1 .9-2.5.9-3.5 0l-5.9-6c-1-.9-1-2.5 0-3.4l.7-.8c.2-.2.4-.2.7-.2.3 0 .6.1 1 .3l1.2.3c.4 0 .9 0 1.3-.4s.4-.9.4-1.3c-.1-.4-.2-.8-.4-1.2-.1-.4-.2-.7-.2-1 0-.3 0-.5.2-.6l1.8-1.9a.5.5 0 00.1-.5c-.5-1-.4-2.1.4-2.9l3.4-3.4c.8-.8 1.9-.9 2.9-.4a.5.5 0 00.5-.1l1.5-1.4c.8-.8 2.6-1.7 4.4-2.4 1.8-.6 3.8-1 5-1z" fill="gray" stroke-width=".4" stroke="gray"/>
</svg>
