<?xml version="1.0" encoding="UTF-8" standalone="no"?>
<svg
   xmlns:dc="http://purl.org/dc/elements/1.1/"
   xmlns:cc="http://creativecommons.org/ns#"
   xmlns:rdf="http://www.w3.org/1999/02/22-rdf-syntax-ns#"
   xmlns:svg="http://www.w3.org/2000/svg"
   xmlns="http://www.w3.org/2000/svg"
   width="74"
   height="68"
   version="1.1">
  <!-- Created with SVG-edit - http://svg-edit.googlecode.com/ -->
  <title>AutoBuildMarlin View</title>
  <g transform="matrix(0.928,0,0,0.970,1.484,1.063)" style="stroke-width:1.053">
    <path d="M 11.136,-1.096 V 0.657 H 7.634 V 2.408 H 5.883 V 4.162 H 4.129 V 5.912 H 2.378 V 7.666 H 0.627 V 11.171 H -1.123 v 45.563 h 1.750 v 3.504 H 2.378 v 1.750 h 1.750 v 1.753 h 1.754 v 1.750 h 1.750 v 1.753 h 3.501 v 1.750 h 54.215 v -1.750 h 3.501 v -1.753 h 1.750 v -1.750 h 1.754 v -1.753 h 1.750 v -1.750 h 1.750 v -3.504 h 1.750 V 0.657 H 75.860 V -1.096 Z" style="opacity:0.2;fill:#ffffff" />
    <path d="m 23.819,8.364 v 1.700 h -3.401 v 1.703 h -1.700 v 1.703 h -1.703 v 1.700 h -1.700 v 3.404 h -1.700 v 39.155 h 1.700 v 1.703 h 8.507 V 20.282 h 1.700 v -1.703 h 6.806 v 1.703 h 1.700 V 59.438 h 10.208 V 20.282 h 1.700 v -1.703 h 6.803 v 1.703 h 1.700 V 59.438 H 64.651 V 18.578 H 62.950 V 15.174 H 61.249 V 13.473 H 59.548 V 11.769 H 57.847 V 10.065 H 54.442 V 8.364 h -8.504 v 1.700 h -3.401 v 1.703 h -1.704 v 1.703 H 37.430 V 11.769 H 35.729 V 10.065 H 32.327 V 8.364 Z" style="fill:#000000" />
  </g>
</svg>
