<?xml version="1.0" encoding="UTF-8" standalone="no"?>
<!-- Created with Inkscape (http://www.inkscape.org/) -->
<svg
   xmlns:dc="http://purl.org/dc/elements/1.1/"
   xmlns:cc="http://creativecommons.org/ns#"
   xmlns:rdf="http://www.w3.org/1999/02/22-rdf-syntax-ns#"
   xmlns:svg="http://www.w3.org/2000/svg"
   xmlns="http://www.w3.org/2000/svg"
   width="48" height="48"
   viewBox="0 0 48 48"
   version="1.1">
  <g transform="translate(0,-284.3)">
    <path
       style="opacity:0.2;fill:#ffffff"
       d="m 7,284.3 v 1 H 5 v 2 H 3 v 2 H 1 v 2 H 0 v 34 h 1 v 2 h 2 v 2 h 2 v 2 h 2 v 1 h 34 v -1 h 2 v -2 h 2 v -2 h 2 v -2 h 1 v -39.918 h -1.033 v -1.081 z" />
    <path
       style="fill:#ffffff;fill-rule:evenodd"
       d="M 5 12 L 5 14 L 6 15 L 9 43 L 10 44 L 38 44 L 39 43 L 42 15 L 43 14 L 43 12 L 5 12 z M 12 16 L 14 16 L 15 17 L 17 39 L 16 40 L 14 40 L 13 39 L 11 17 L 12 16 z M 23 16 L 25 16 L 26 17 L 26 39 L 25 40 L 23 40 L 22 39 L 22 17 L 23 16 z M 34 16 L 36 16 L 37 17 L 35 39 L 34 40 L 32 40 L 31 39 L 33 17 L 34 16 z "
       transform="translate(0,284.3)" />
    <path
       style="color:#000000;clip-rule:nonzero;overflow:visible;visibility:visible;opacity:1;solid-color:#000000;solid-opacity:1;fill:#ffffff"
       d="m 5,292.3 h 1 v -1 l 9,-2 h 4 l 1,-2 h 7 l 1,2 h 5 l 9,2 v 1 h 1 v 2 H 5 Z" />
  </g>
</svg>
