<?xml version="1.0" encoding="UTF-8" standalone="no"?>
<svg
   xmlns:dc="http://purl.org/dc/elements/1.1/"
   xmlns:cc="http://creativecommons.org/ns#"
   xmlns:rdf="http://www.w3.org/1999/02/22-rdf-syntax-ns#"
   xmlns:svg="http://www.w3.org/2000/svg"
   xmlns="http://www.w3.org/2000/svg"
   id="svg8"
   version="1.1"
   viewBox="0 0 12.7 12.7"
   height="48"
   width="48">
  <g
     transform="translate(-75.859,-131.661)">
    <g
       transform="translate(3e-6)">
      <path
         style="opacity:0.2;fill:#ffffff"
         d="m 77.711,131.661 v 0.264 h -0.529 v 0.529 h -0.529 v 0.529 h -0.529 v 0.529 h -0.264 v 8.995 h 0.264 v 0.529 h 0.529 v 0.529 h 0.529 v 0.529 h 0.529 v 0.264 h 8.995 v -0.264 h 0.529 v -0.529 h 0.529 v -0.529 h 0.529 v -0.529 h 0.264 v -10.561 h -0.273 v -0.286 z"
         id="path36194-4" />
      <path
         style="fill:#000000"
         d="m 23.925,15.658 c -0.329,0.008 -0.660,0.037 -0.990,0.085 -0.232,0.034 -0.593,0.232 -0.425,0.400 l 1.402,1.404 2.898,2.898 c 0.353,0.353 0.320,2.714 -0.074,3.109 L 23.556,26.736 c -0.394,0.394 -2.755,0.427 -3.109,0.074 l -2.875,-2.875 -1.427,-1.427 c -0.164,-0.164 -0.364,0.184 -0.398,0.412 -0.389,2.645 0.490,5.336 2.400,7.246 2.219,2.219 5.481,3.035 8.484,2.121 l 9.979,9.976 5.658,-5.656 -9.979,-9.976 c 0.914,-3.003 0.098,-6.264 -2.121,-8.484 -1.667,-1.667 -3.933,-2.550 -6.242,-2.488 z"
         transform="matrix(0.264,0,0,0.264,75.859,131.661)" />
      <path
         style="fill:#000000"
         d="M 21.343 1.322 C 20.852 1.322 20.541 1.649 20.457 2.037 L 19.431 6.740 A 17.855 17.854 0 0 0 15.007 8.574 L 10.974 5.964 C 10.629 5.762 10.190 5.738 9.843 6.085 L 6.085 9.843 C 5.738 10.190 5.749 10.641 5.964 10.974 L 8.574 15.007 A 17.855 17.854 0 0 0 6.734 19.451 L 2.037 20.457 C 1.649 20.558 1.322 20.852 1.322 21.343 L 1.322 26.656 C 1.322 27.147 1.649 27.459 2.037 27.542 L 6.734 28.548 A 17.855 17.854 0 0 0 8.576 32.990 L 5.964 37.025 C 5.762 37.370 5.738 37.809 6.085 38.156 L 9.843 41.914 C 10.190 42.261 10.641 42.250 10.974 42.035 L 15.009 39.423 A 17.855 17.854 0 0 0 19.449 41.263 L 20.457 45.962 C 20.558 46.350 20.852 46.677 21.343 46.677 L 26.656 46.677 C 27.147 46.677 27.459 46.350 27.542 45.962 L 28.550 41.263 A 17.855 17.854 0 0 0 31.753 40.080 L 27.376 35.703 A 12.182 12.181 0 0 1 24 36.181 A 12.182 12.181 0 0 1 11.818 24 A 12.182 12.181 0 0 1 23.941 11.818 A 12.182 12.181 0 0 1 24 11.818 A 12.182 12.181 0 0 1 36.181 24 A 12.182 12.181 0 0 1 35.705 27.371 L 40.083 31.75 A 17.855 17.854 0 0 0 41.261 28.566 L 45.962 27.542 C 46.349 27.439 46.677 27.147 46.677 26.656 L 46.677 21.343 C 46.677 20.852 46.350 20.541 45.962 20.457 L 41.261 19.433 A 17.855 17.854 0 0 0 39.433 15.025 L 42.035 10.974 C 42.235 10.628 42.261 10.190 41.914 9.843 L 38.156 6.085 C 37.809 5.738 37.359 5.750 37.025 5.964 L 32.974 8.566 A 17.855 17.854 0 0 0 28.568 6.740 A 17.855 17.854 0 0 0 28.566 6.740 L 27.542 2.037 C 27.439 1.650 27.147 1.322 26.656 1.322 L 21.343 1.322 z "
         transform="matrix(0.264,0,0,0.264,75.859,131.661)" />
    </g>
  </g>
</svg>
