<?xml version="1.0" encoding="UTF-8" standalone="no"?>
<svg
   xmlns:dc="http://purl.org/dc/elements/1.1/"
   xmlns:cc="http://creativecommons.org/ns#"
   xmlns:rdf="http://www.w3.org/1999/02/22-rdf-syntax-ns#"
   xmlns:svg="http://www.w3.org/2000/svg"
   xmlns="http://www.w3.org/2000/svg"
   version="1.1"
   viewBox="0 0 12.7 12.7"
   height="48"
   width="48">
  <g
     transform="translate(-75.859,-131.661)">
    <g
       transform="translate(3e-6)">
      <path
         style="opacity:0.2;fill:#ffffff"
         d="m 77.711,131.661 v 0.264 h -0.529 v 0.529 h -0.529 v 0.529 h -0.529 v 0.529 h -0.264 v 8.995 h 0.264 v 0.529 h 0.529 v 0.529 h 0.529 v 0.529 h 0.529 v 0.264 h 8.995 v -0.264 h 0.529 v -0.529 h 0.529 v -0.529 h 0.529 v -0.529 h 0.264 v -10.561 h -0.273 v -0.286 z" />
      <path
         style="fill:#ffffff"
         d="M 23.925 15.658 C 23.595 15.667 23.265 15.696 22.935 15.744 C 22.702 15.778 22.341 15.976 22.509 16.144 L 23.912 17.548 L 26.810 20.447 C 27.164 20.800 27.130 23.162 26.736 23.556 L 23.556 26.736 C 23.162 27.130 20.800 27.164 20.447 26.810 L 17.572 23.935 L 16.144 22.507 C 15.980 22.343 15.779 22.692 15.746 22.919 C 15.356 25.565 16.236 28.256 18.146 30.166 C 20.366 32.385 23.627 33.201 26.630 32.287 L 34.230 39.886 A 18.897 18.897 0 0 0 39.888 34.230 L 32.289 26.630 C 33.203 23.627 32.387 20.366 30.167 18.146 C 28.500 16.478 26.234 15.595 23.925 15.658 z "
         transform="matrix(0.264,0,0,0.264,75.859,131.661)" />
      <path
         d="m 82.189,135.804 c -0.087,0.002 -0.174,0.010 -0.261,0.022 -0.061,0.009 -0.157,0.061 -0.112,0.105 l 0.371,0.371 0.766,0.766 c 0.093,0.093 0.084,0.718 -0.019,0.822 l -0.841,0.841 c -0.104,0.104 -0.729,0.113 -0.822,0.019 l -0.760,-0.760 -0.377,-0.377 c -0.043,-0.043 -0.096,0.048 -0.105,0.109 -0.102,0.7 0.129,1.411 0.635,1.917 0.587,0.587 1.450,0.803 2.244,0.561 l 2.640,2.639 1.497,-1.496 -2.640,-2.639 c 0.241,-0.794 0.026,-1.657 -0.561,-2.244 -0.441,-0.441 -1.040,-0.674 -1.651,-0.658 z"
         style="fill:#ffffff" />
      <path
         d="m 81.506,132.011 c -0.129,0 -0.212,0.086 -0.234,0.189 l -0.271,1.244 a 4.724,4.723 0 0 0 -1.170,0.485 l -1.067,-0.690 c -0.091,-0.053 -0.207,-0.059 -0.299,0.032 l -0.994,0.994 c -0.091,0.091 -0.089,0.211 -0.032,0.299 l 0.690,1.067 a 4.724,4.723 0 0 0 -0.486,1.175 l -1.242,0.266 c -0.102,0.026 -0.189,0.104 -0.189,0.234 v 1.405 c 0,0.129 0.086,0.212 0.189,0.234 l 1.242,0.266 a 4.724,4.723 0 0 0 0.487,1.175 l -0.690,1.067 c -0.053,0.091 -0.059,0.207 0.032,0.299 l 0.994,0.994 c 0.091,0.091 0.211,0.089 0.299,0.032 l 1.067,-0.690 a 4.724,4.723 0 0 0 1.174,0.486 l 0.266,1.243 c 0.026,0.102 0.104,0.189 0.234,0.189 h 1.405 c 0.129,0 0.212,-0.086 0.234,-0.189 l 0.266,-1.243 a 4.724,4.723 0 0 0 0.847,-0.313 l -1.158,-1.158 a 3.223,3.223 0 0 1 -0.893,0.126 3.223,3.223 0 0 1 -3.223,-3.223 3.223,3.223 0 0 1 3.207,-3.223 3.223,3.223 0 0 1 0.015,0 3.223,3.223 0 0 1 3.223,3.223 3.223,3.223 0 0 1 -0.126,0.891 l 1.158,1.158 a 4.724,4.723 0 0 0 0.311,-0.842 l 1.243,-0.270 c 0.102,-0.027 0.189,-0.104 0.189,-0.234 v -1.405 c 0,-0.129 -0.086,-0.212 -0.189,-0.234 l -1.243,-0.270 a 4.724,4.723 0 0 0 -0.483,-1.166 l 0.688,-1.071 c 0.053,-0.091 0.059,-0.207 -0.032,-0.299 l -0.994,-0.994 c -0.091,-0.091 -0.210,-0.088 -0.299,-0.032 l -1.071,0.688 a 4.724,4.723 0 0 0 -1.165,-0.483 4.724,4.723 0 0 0 -5.29e-4,0 l -0.270,-1.244 c -0.027,-0.102 -0.104,-0.189 -0.234,-0.189 z"
         style="fill:#ffffff;stroke-width:2.000" />
    </g>
  </g>
</svg>
